#!OML:ASF H:\ManfredETheater\Project 1\Capture day 1\Session 1\subject.ASF
:FULLY-SPECIFIED
:DEGREES
47
root 2.16758 15.1627 26.5154 -136.117 -23.9089 -182.918
lowerback 36.1587 -4.79853 12.8532
upperback 7.61376 -2.91249 4.01406
thorax -9.43814 -2.33438 -1.06776
lowerneck -10.6944 -2.35276 1.56866
upperneck -2.15648 -3.66039 -5.84133
head 1.00574 -2.13654 -2.28194
rclavicle 8.0309e-014 -1.07145e-013
rhumerus -15.7262 12.9463 -77.1276
rradius 114.809
rwrist -1.42119
rhand -20.7191 4.36803
rfingers 7.12502
rthumb 5.64561 -25.5368
lclavicle 8.0309e-014 -1.07145e-013
lhumerus 1.54474 -4.61161 77.9808
lradius 70.0253
lwrist 1.25192
lhand -33.8893 -9.45482
lfingers 7.12502
lthumb -7.07275 20.407
rfemur -89.2608 -11.3948 17.8107
rtibia 67.231
rfoot -12.859 -6.64808
rtoes -33.7549
lfemur -19.071 -10.5904 -2.89068
ltibia 34.0168
lfoot 3.98956 -9.79918
ltoes -1.09339
48
root 2.19972 15.2339 26.0533 -134.285 -24.2245 -183.97
lowerback 36.1305 -4.75285 12.634
upperback 7.5049 -2.86226 3.83471
thorax -9.56531 -2.28061 -1.17261
lowerneck -10.7434 -2.57376 1.2651
upperneck -2.06708 -3.91915 -5.69167
head 1.03856 -2.26343 -2.19085
rclavicle -2.78299e-014 -2.67365e-014
rhumerus -13.2948 13.7178 -76.356
rradius 114.936
rwrist -1.34056
rhand -20.666 4.52445
rfingers 7.12502
rthumb 5.69679 -25.379
lclavicle -2.78299e-014 -2.67365e-014
lhumerus 3.84829 -4.90802 77.8504
lradius 69.8754
lwrist 1.17864
lhand -33.8829 -9.64841
lfingers 7.12502
lthumb -7.06649 20.2136
rfemur -89.3 -11.5769 17.9388
rtibia 67.7991
rfoot -14.2069 -8.09392
rtoes -33.7798
lfemur -19.1136 -9.9613 -3.22128
ltibia 32.7788
lfoot 6.30124 -7.10943
ltoes 2.33878
49
root 2.22953 15.3113 25.5958 -132.41 -24.3835 -185.122
lowerback 36.1374 -4.68403 12.3201
upperback 7.41672 -2.82505 3.58489
thorax -9.68729 -2.23052 -1.2998
lowerneck -10.7599 -2.79954 0.979053
upperneck -2.0313 -4.19048 -5.54551
head 1.04884 -2.39648 -2.10321
rclavicle -2.70347e-014 -3.83654e-014
rhumerus -10.7394 14.3765 -75.4517
rradius 115.002
rwrist -1.30784
rhand -20.7171 4.68525
rfingers 7.12502
rthumb 5.6475 -25.2195
lclavicle -2.70347e-014 -3.83654e-014
lhumerus 6.28095 -5.25617 77.6559
lradius 69.6881
lwrist 1.02201
lhand -33.8796 -9.82467
lfingers 7.12502
lthumb -7.06337 20.0375
rfemur -89.2014 -11.758 17.8855
rtibia 68.093
rfoot -15.3994 -9.5067
rtoes -33.9433
lfemur -19.3379 -9.00332 -3.81121
ltibia 32.203
lfoot 7.70269 -4.04751
ltoes 5.47927
50
root 2.25672 15.3952 25.1427 -130.536 -24.4093 -186.314
lowerback 36.1753 -4.60039 11.9632
upperback 7.36755 -2.80093 3.27227
thorax -9.78021 -2.18594 -1.46729
lowerneck -10.748 -3.0241 0.716428
upperneck -2.05319 -4.46749 -5.40766
head 1.03607 -2.53241 -2.02113
rclavicle -1.74931e-014 -3.46879e-014
rhumerus -8.05792 14.9063 -74.4266
rradius 115.013
rwrist -1.31824
rhand -20.9014 4.83842
rfingers 7.12502
rthumb 5.46955 -25.071
lclavicle -1.74931e-014 -3.46879e-014
lhumerus 8.86516 -5.64102 77.3878
lradius 69.4464
lwrist 0.807709
lhand -33.9212 -9.99604
lfingers 7.12502
lthumb -7.1035 19.8648
rfemur -88.9306 -11.9216 17.6967
rtibia 68.1024
rfoot -16.4764 -10.7658
rtoes -34.0162
lfemur -19.6848 -7.77566 -4.58139
ltibia 32.2749
lfoot 8.27128 -0.949541
ltoes 8.52022
51
root 2.28108 15.4864 24.693 -128.703 -24.3377 -187.49
lowerback 36.2617 -4.49873 11.6029
upperback 7.36097 -2.77071 2.92585
thorax -9.84204 -2.14067 -1.67016
lowerneck -10.7153 -3.25015 0.465456
upperneck -2.12621 -4.75263 -5.28347
head 1.00363 -2.67285 -1.94449
rclavicle -2.06736e-014 -1.19271e-014
rhumerus -5.25813 15.2713 -73.2616
rradius 114.979
rwrist -1.39733
rhand -21.172 4.94045
rfingers 7.12502
rthumb 5.20827 -24.9755
lclavicle -2.06736e-014 -1.19271e-014
lhumerus 11.6 -6.04989 77.0831
lradius 69.1534
lwrist 0.55947
lhand -34.0143 -10.1447
lfingers 7.12502
lthumb -7.19339 19.713
rfemur -88.4771 -12.0516 17.4326
rtibia 67.8252
rfoot -17.4504 -11.9039
rtoes -34.2293
lfemur -20.1022 -6.41106 -5.42899
ltibia 32.9375
lfoot 8.11329 1.75757
ltoes 10.9053
52
root 2.30248 15.5851 24.2466 -126.921 -24.2082 -188.605
lowerback 36.3805 -4.39528 11.2913
upperback 7.39563 -2.73668 2.55606
thorax -9.86796 -2.09662 -1.92316
lowerneck -10.6583 -3.46912 0.216206
upperneck -2.24257 -5.03268 -5.17874
head 0.953944 -2.81116 -1.87279
rclavicle -1.03368e-014 7.2954e-014
rhumerus -2.35196 15.4672 -71.9798
rradius 114.896
rwrist -1.55514
rhand -21.5039 5.01285
rfingers 7.12502
rthumb 4.88776 -24.9108
lclavicle -1.03368e-014 7.2954e-014
lhumerus 14.4936 -6.45465 76.7408
lradius 68.7821
lwrist 0.311087
lhand -34.1634 -10.2344
lfingers 7.12502
lthumb -7.33726 19.6184
rfemur -87.8665 -12.1339 17.1635
rtibia 67.2677
rfoot -18.2791 -12.9383
rtoes -34.5394
lfemur -20.5641 -5.10289 -6.23579
ltibia 34.1116
lfoot 7.49899 3.86946
ltoes 12.5493
53
root 2.3203 15.6909 23.8025 -125.174 -24.0607 -189.62
lowerback 36.4896 -4.29013 11.0579
upperback 7.46288 -2.68725 2.18859
thorax -9.85038 -2.04826 -2.22041
lowerneck -10.5693 -3.68332 -0.0557549
upperneck -2.39621 -5.30802 -5.08815
head 0.88821 -2.94715 -1.79982
rclavicle 7.95139e-015 -2.80783e-014
rhumerus 0.64464 15.4773 -70.5718
rradius 114.754
rwrist -1.77382
rhand -21.8465 5.04487
rfingers 7.12502
rthumb 4.55698 -24.8861
lclavicle 7.95139e-015 -2.80783e-014
lhumerus 17.5152 -6.83184 76.3953
lradius 68.3279
lwrist 0.085144
lhand -34.3467 -10.2575
lfingers 7.12502
lthumb -7.51418 19.589
rfemur -87.15 -12.1593 16.9546
rtibia 66.4432
rfoot -18.9103 -13.9021
rtoes -34.8792
lfemur -21.0764 -4.01355 -6.89544
ltibia 35.7183
lfoot 6.6561 5.1104
ltoes 12.9892
